<svg width="48" height="49" viewBox="0 0 48 49" fill="none" xmlns="http://www.w3.org/2000/svg">
<g filter="url(#filter0_d_6_23)">
<path d="M7.296 41C6.592 41 6 40.76 5.52 40.28C5.04 39.8 4.8 39.208 4.8 38.504V6.008C4.8 5.272 5.04 4.68 5.52 4.232C6 3.752 6.592 3.512 7.296 3.512H15.984C18.736 3.512 21.232 3.976 23.472 4.904C25.744 5.8 27.712 7.096 29.376 8.792C31.04 10.456 32.32 12.424 33.216 14.696C34.112 16.968 34.56 19.48 34.56 22.232C34.56 24.984 34.112 27.512 33.216 29.816C32.32 32.088 31.04 34.072 29.376 35.768C27.712 37.432 25.744 38.728 23.472 39.656C21.232 40.552 18.736 41 15.984 41H7.296ZM9.792 36.584H15.984C18.672 36.584 21.04 35.976 23.088 34.76C25.168 33.512 26.8 31.816 27.984 29.672C29.168 27.496 29.76 25.016 29.76 22.232C29.76 19.416 29.168 16.936 27.984 14.792C26.8 12.648 25.168 10.968 23.088 9.752C21.04 8.536 18.672 7.928 15.984 7.928H9.792V36.584Z" fill="url(#paint0_linear_6_23)"/>
</g>
<path d="M32.704 41.48C30.656 41.48 28.704 41.16 26.848 40.52C24.992 39.88 23.376 38.984 22 37.832C20.624 36.68 19.616 35.352 18.976 33.848C18.656 33.176 18.656 32.552 18.976 31.976C19.328 31.4 19.904 31.032 20.704 30.872C21.28 30.744 21.84 30.84 22.384 31.16C22.96 31.448 23.392 31.896 23.68 32.504C24.064 33.304 24.688 34.04 25.552 34.712C26.448 35.384 27.52 35.928 28.768 36.344C30.016 36.76 31.328 36.968 32.704 36.968C34.24 36.968 35.648 36.728 36.928 36.248C38.24 35.768 39.296 35.08 40.096 34.184C40.896 33.256 41.296 32.12 41.296 30.776C41.296 29.08 40.624 27.56 39.28 26.216C37.968 24.872 35.792 24.04 32.752 23.72C28.784 23.336 25.664 22.168 23.392 20.216C21.12 18.264 19.984 15.848 19.984 12.968C19.984 10.856 20.576 9.064 21.76 7.592C22.944 6.12 24.544 5 26.56 4.232C28.608 3.464 30.88 3.08 33.376 3.08C35.328 3.08 37.024 3.352 38.464 3.896C39.936 4.44 41.216 5.192 42.304 6.152C43.392 7.112 44.336 8.248 45.136 9.56C45.584 10.264 45.76 10.936 45.664 11.576C45.6 12.184 45.296 12.664 44.752 13.016C44.144 13.4 43.488 13.48 42.784 13.256C42.08 13.032 41.552 12.616 41.2 12.008C40.688 11.08 40.064 10.296 39.328 9.656C38.592 9.016 37.728 8.52 36.736 8.168C35.744 7.784 34.576 7.592 33.232 7.592C30.864 7.56 28.88 8.008 27.28 8.936C25.68 9.832 24.88 11.224 24.88 13.112C24.88 14.072 25.12 15 25.6 15.896C26.112 16.76 27.024 17.512 28.336 18.152C29.68 18.792 31.6 19.24 34.096 19.496C37.904 19.88 40.864 21.048 42.976 23C45.12 24.92 46.192 27.464 46.192 30.632C46.192 32.456 45.808 34.04 45.04 35.384C44.304 36.728 43.296 37.864 42.016 38.792C40.768 39.688 39.328 40.36 37.696 40.808C36.096 41.256 34.432 41.48 32.704 41.48Z" fill="url(#paint1_linear_6_23)"/>
<defs>
<filter id="filter0_d_6_23" x="0.800049" y="3.51202" width="37.76" height="45.488" filterUnits="userSpaceOnUse" color-interpolation-filters="sRGB">
<feFlood flood-opacity="0" result="BackgroundImageFix"/>
<feColorMatrix in="SourceAlpha" type="matrix" values="0 0 0 0 0 0 0 0 0 0 0 0 0 0 0 0 0 0 127 0" result="hardAlpha"/>
<feOffset dy="4"/>
<feGaussianBlur stdDeviation="2"/>
<feComposite in2="hardAlpha" operator="out"/>
<feColorMatrix type="matrix" values="0 0 0 0 0 0 0 0 0 0 0 0 0 0 0 0 0 0 0.25 0"/>
<feBlend mode="normal" in2="BackgroundImageFix" result="effect1_dropShadow_6_23"/>
<feBlend mode="normal" in="SourceGraphic" in2="effect1_dropShadow_6_23" result="shape"/>
</filter>
<linearGradient id="paint0_linear_6_23" x1="-12.5" y1="20.6852" x2="56.4994" y2="21.2252" gradientUnits="userSpaceOnUse">
<stop/>
<stop offset="1" stop-color="#AEAEAE"/>
</linearGradient>
<linearGradient id="paint1_linear_6_23" x1="12" y1="19.7593" x2="43" y2="19.7593" gradientUnits="userSpaceOnUse">
<stop offset="0.296875" stop-color="#6E558D"/>
<stop offset="1" stop-color="#C4B7D5"/>
</linearGradient>
</defs>
</svg>
