<svg width="49" height="54" viewBox="0 0 49 54" fill="none" xmlns="http://www.w3.org/2000/svg">
<g filter="url(#filter0_d_6_23)">
<path d="M7.296 43C6.592 43 6 42.76 5.52 42.28C5.04 41.8 4.8 41.208 4.8 40.504V8.008C4.8 7.272 5.04 6.68 5.52 6.232C6 5.752 6.592 5.512 7.296 5.512H15.984C18.736 5.512 21.232 5.976 23.472 6.904C25.744 7.8 27.712 9.096 29.376 10.792C31.04 12.456 32.32 14.424 33.216 16.696C34.112 18.968 34.56 21.48 34.56 24.232C34.56 26.984 34.112 29.512 33.216 31.816C32.32 34.088 31.04 36.072 29.376 37.768C27.712 39.432 25.744 40.728 23.472 41.656C21.232 42.552 18.736 43 15.984 43H7.296ZM9.792 38.584H15.984C18.672 38.584 21.04 37.976 23.088 36.76C25.168 35.512 26.8 33.816 27.984 31.672C29.168 29.496 29.76 27.016 29.76 24.232C29.76 21.416 29.168 18.936 27.984 16.792C26.8 14.648 25.168 12.968 23.088 11.752C21.04 10.536 18.672 9.928 15.984 9.928H9.792V38.584Z" fill="url(#paint0_linear_6_23)"/>
</g>
<path d="M32.704 43.48C30.656 43.48 28.704 43.16 26.848 42.52C24.992 41.88 23.376 40.984 22 39.832C20.624 38.68 19.616 37.352 18.976 35.848C18.656 35.176 18.656 34.552 18.976 33.976C19.328 33.4 19.904 33.032 20.704 32.872C21.28 32.744 21.84 32.84 22.384 33.16C22.96 33.448 23.392 33.896 23.68 34.504C24.064 35.304 24.688 36.04 25.552 36.712C26.448 37.384 27.52 37.928 28.768 38.344C30.016 38.76 31.328 38.968 32.704 38.968C34.24 38.968 35.648 38.728 36.928 38.248C38.24 37.768 39.296 37.08 40.096 36.184C40.896 35.256 41.296 34.12 41.296 32.776C41.296 31.08 40.624 29.56 39.28 28.216C37.968 26.872 35.792 26.04 32.752 25.72C28.784 25.336 25.664 24.168 23.392 22.216C21.12 20.264 19.984 17.848 19.984 14.968C19.984 12.856 20.576 11.064 21.76 9.592C22.944 8.12 24.544 7 26.56 6.232C28.608 5.464 30.88 5.08 33.376 5.08C35.328 5.08 37.024 5.352 38.464 5.896C39.936 6.44 41.216 7.192 42.304 8.152C43.392 9.112 44.336 10.248 45.136 11.56C45.584 12.264 45.76 12.936 45.664 13.576C45.6 14.184 45.296 14.664 44.752 15.016C44.144 15.4 43.488 15.48 42.784 15.256C42.08 15.032 41.552 14.616 41.2 14.008C40.688 13.08 40.064 12.296 39.328 11.656C38.592 11.016 37.728 10.52 36.736 10.168C35.744 9.784 34.576 9.592 33.232 9.592C30.864 9.56 28.88 10.008 27.28 10.936C25.68 11.832 24.88 13.224 24.88 15.112C24.88 16.072 25.12 17 25.6 17.896C26.112 18.76 27.024 19.512 28.336 20.152C29.68 20.792 31.6 21.24 34.096 21.496C37.904 21.88 40.864 23.048 42.976 25C45.12 26.92 46.192 29.464 46.192 32.632C46.192 34.456 45.808 36.04 45.04 37.384C44.304 38.728 43.296 39.864 42.016 40.792C40.768 41.688 39.328 42.36 37.696 42.808C36.096 43.256 34.432 43.48 32.704 43.48Z" fill="url(#paint1_linear_6_23)"/>
<defs>
<filter id="filter0_d_6_23" x="0.800049" y="5.51202" width="37.76" height="45.488" filterUnits="userSpaceOnUse" color-interpolation-filters="sRGB">
<feFlood flood-opacity="0" result="BackgroundImageFix"/>
<feColorMatrix in="SourceAlpha" type="matrix" values="0 0 0 0 0 0 0 0 0 0 0 0 0 0 0 0 0 0 127 0" result="hardAlpha"/>
<feOffset dy="4"/>
<feGaussianBlur stdDeviation="2"/>
<feComposite in2="hardAlpha" operator="out"/>
<feColorMatrix type="matrix" values="0 0 0 0 0 0 0 0 0 0 0 0 0 0 0 0 0 0 0.25 0"/>
<feBlend mode="normal" in2="BackgroundImageFix" result="effect1_dropShadow_6_23"/>
<feBlend mode="normal" in="SourceGraphic" in2="effect1_dropShadow_6_23" result="shape"/>
</filter>
<linearGradient id="paint0_linear_6_23" x1="-12.5" y1="24.5" x2="56.5" y2="25" gradientUnits="userSpaceOnUse">
<stop/>
<stop offset="1" stop-color="#AEAEAE"/>
</linearGradient>
<linearGradient id="paint1_linear_6_23" x1="12" y1="23.5" x2="43" y2="23.5" gradientUnits="userSpaceOnUse">
<stop stop-color="#B3B3B3"/>
<stop offset="0.78125" stop-color="#6E558D"/>
</linearGradient>
</defs>
</svg>
