<svg width="32" height="32" viewBox="0 0 32 32" fill="none" xmlns="http://www.w3.org/2000/svg">
<g clip-path="url(#clip0_5_4)">
<g filter="url(#filter0_d_5_4)">
<path d="M15.5 3C8.048 3 2 9.048 2 16.5C2 23.952 8.048 30 15.5 30C22.952 30 29 23.952 29 16.5C29 9.048 22.952 3 15.5 3ZM8.8445 24.978C9.425 23.763 12.962 22.575 15.5 22.575C18.038 22.575 21.5885 23.763 22.1555 24.978C20.3195 26.436 18.011 27.3 15.5 27.3C12.989 27.3 10.6805 26.436 8.8445 24.978ZM24.086 23.0205C22.1555 20.6715 17.471 19.875 15.5 19.875C13.529 19.875 8.8445 20.6715 6.914 23.0205C5.537 21.2115 4.7 18.957 4.7 16.5C4.7 10.5465 9.5465 5.7 15.5 5.7C21.4535 5.7 26.3 10.5465 26.3 16.5C26.3 18.957 25.463 21.2115 24.086 23.0205ZM15.5 8.4C12.881 8.4 10.775 10.506 10.775 13.125C10.775 15.744 12.881 17.85 15.5 17.85C18.119 17.85 20.225 15.744 20.225 13.125C20.225 10.506 18.119 8.4 15.5 8.4ZM15.5 15.15C14.3795 15.15 13.475 14.2455 13.475 13.125C13.475 12.0045 14.3795 11.1 15.5 11.1C16.6205 11.1 17.525 12.0045 17.525 13.125C17.525 14.2455 16.6205 15.15 15.5 15.15Z" fill="url(#paint0_linear_5_4)"/>
</g>
</g>
<defs>
<filter id="filter0_d_5_4" x="-1" y="0" width="33" height="33" filterUnits="userSpaceOnUse" color-interpolation-filters="sRGB">
<feFlood flood-opacity="0" result="BackgroundImageFix"/>
<feColorMatrix in="SourceAlpha" type="matrix" values="0 0 0 0 0 0 0 0 0 0 0 0 0 0 0 0 0 0 127 0" result="hardAlpha"/>
<feOffset/>
<feGaussianBlur stdDeviation="1.5"/>
<feComposite in2="hardAlpha" operator="out"/>
<feColorMatrix type="matrix" values="0 0 0 0 0.570833 0 0 0 0 0.570833 0 0 0 0 0.570833 0 0 0 1 0"/>
<feBlend mode="normal" in2="BackgroundImageFix" result="effect1_dropShadow_5_4"/>
<feBlend mode="normal" in="SourceGraphic" in2="effect1_dropShadow_5_4" result="shape"/>
</filter>
<linearGradient id="paint0_linear_5_4" x1="15.5" y1="3" x2="15.5" y2="30" gradientUnits="userSpaceOnUse">
<stop stop-color="#535353"/>
<stop offset="1"/>
</linearGradient>
<clipPath id="clip0_5_4">
<rect width="32" height="32" fill="white"/>
</clipPath>
</defs>
</svg>
